<mxfile host="app.diagrams.net" modified="2023-07-24T06:04:28.161Z" agent="Mozilla/5.0 (Windows NT 10.0; Win64; x64) AppleWebKit/537.36 (KHTML, like Gecko) Chrome/115.0.0.0 Safari/537.36" etag="bMGgzc_TwWIgAxY4E2iZ" version="21.6.5" type="github">
  <diagram name="페이지-1" id="ciY3IhIfSriye4W27SwN">
    <mxGraphModel dx="1434" dy="790" grid="1" gridSize="10" guides="1" tooltips="1" connect="1" arrows="1" fold="1" page="1" pageScale="1" pageWidth="827" pageHeight="1169" math="0" shadow="0">
      <root>
        <mxCell id="0" />
        <mxCell id="1" parent="0" />
        <mxCell id="O262PkwjfAipwRfIdHsJ-3" value="고객" style="whiteSpace=wrap;html=1;align=center;rounded=0;" parent="1" vertex="1">
          <mxGeometry x="169.5" y="180" width="100" height="40" as="geometry" />
        </mxCell>
        <mxCell id="O262PkwjfAipwRfIdHsJ-5" value="고객명" style="ellipse;whiteSpace=wrap;html=1;align=center;rounded=0;" parent="1" vertex="1">
          <mxGeometry x="69.5" y="130" width="100" height="40" as="geometry" />
        </mxCell>
        <mxCell id="O262PkwjfAipwRfIdHsJ-6" value="" style="endArrow=none;html=1;rounded=0;entryX=0;entryY=0;entryDx=0;entryDy=0;exitX=0.5;exitY=1;exitDx=0;exitDy=0;" parent="1" target="O262PkwjfAipwRfIdHsJ-3" edge="1" source="O262PkwjfAipwRfIdHsJ-5">
          <mxGeometry relative="1" as="geometry">
            <mxPoint x="119.5" y="160" as="sourcePoint" />
            <mxPoint x="279.5" y="160" as="targetPoint" />
          </mxGeometry>
        </mxCell>
        <mxCell id="O262PkwjfAipwRfIdHsJ-7" value="이메일" style="ellipse;whiteSpace=wrap;html=1;align=center;rounded=0;" parent="1" vertex="1">
          <mxGeometry x="249.5" y="80" width="100" height="40" as="geometry" />
        </mxCell>
        <mxCell id="O262PkwjfAipwRfIdHsJ-8" value="가입일" style="ellipse;whiteSpace=wrap;html=1;align=center;rounded=0;" parent="1" vertex="1">
          <mxGeometry x="269.5" y="255" width="100" height="40" as="geometry" />
        </mxCell>
        <mxCell id="O262PkwjfAipwRfIdHsJ-9" value="&lt;font color=&quot;#ff3333&quot;&gt;주소&lt;/font&gt;" style="ellipse;whiteSpace=wrap;html=1;align=center;rounded=0;" parent="1" vertex="1">
          <mxGeometry x="30" y="230" width="100" height="40" as="geometry" />
        </mxCell>
        <mxCell id="O262PkwjfAipwRfIdHsJ-10" value="전화번호" style="ellipse;whiteSpace=wrap;html=1;align=center;rounded=0;" parent="1" vertex="1">
          <mxGeometry x="139.5" y="60" width="100" height="40" as="geometry" />
        </mxCell>
        <mxCell id="O262PkwjfAipwRfIdHsJ-12" value="" style="endArrow=none;html=1;rounded=0;entryX=0.5;entryY=0;entryDx=0;entryDy=0;exitX=0.75;exitY=1;exitDx=0;exitDy=0;" parent="1" source="O262PkwjfAipwRfIdHsJ-3" target="O262PkwjfAipwRfIdHsJ-8" edge="1">
          <mxGeometry relative="1" as="geometry">
            <mxPoint x="239.5" y="205" as="sourcePoint" />
            <mxPoint x="319.5" y="205" as="targetPoint" />
          </mxGeometry>
        </mxCell>
        <mxCell id="O262PkwjfAipwRfIdHsJ-14" value="" style="endArrow=none;html=1;rounded=0;exitX=0.6;exitY=0;exitDx=0;exitDy=0;exitPerimeter=0;entryX=0;entryY=0.75;entryDx=0;entryDy=0;" parent="1" source="O262PkwjfAipwRfIdHsJ-9" target="O262PkwjfAipwRfIdHsJ-3" edge="1">
          <mxGeometry relative="1" as="geometry">
            <mxPoint x="100" y="220" as="sourcePoint" />
            <mxPoint x="130" y="220" as="targetPoint" />
          </mxGeometry>
        </mxCell>
        <mxCell id="O262PkwjfAipwRfIdHsJ-15" value="" style="endArrow=none;html=1;rounded=0;entryX=0.5;entryY=1;entryDx=0;entryDy=0;exitX=0.5;exitY=0;exitDx=0;exitDy=0;" parent="1" source="O262PkwjfAipwRfIdHsJ-3" target="O262PkwjfAipwRfIdHsJ-7" edge="1">
          <mxGeometry relative="1" as="geometry">
            <mxPoint x="139.5" y="220" as="sourcePoint" />
            <mxPoint x="299.5" y="220" as="targetPoint" />
          </mxGeometry>
        </mxCell>
        <mxCell id="O262PkwjfAipwRfIdHsJ-16" value="" style="endArrow=none;html=1;rounded=0;entryX=0.5;entryY=1;entryDx=0;entryDy=0;" parent="1" source="O262PkwjfAipwRfIdHsJ-3" target="O262PkwjfAipwRfIdHsJ-10" edge="1">
          <mxGeometry relative="1" as="geometry">
            <mxPoint x="139.5" y="220" as="sourcePoint" />
            <mxPoint x="299.5" y="220" as="targetPoint" />
            <Array as="points">
              <mxPoint x="209.5" y="160" />
            </Array>
          </mxGeometry>
        </mxCell>
        <mxCell id="O262PkwjfAipwRfIdHsJ-17" value="&lt;font color=&quot;#ff3333&quot;&gt;지역&lt;/font&gt;" style="ellipse;whiteSpace=wrap;html=1;align=center;rounded=0;" parent="1" vertex="1">
          <mxGeometry x="100" y="290" width="100" height="40" as="geometry" />
        </mxCell>
        <mxCell id="O262PkwjfAipwRfIdHsJ-18" value="" style="endArrow=none;html=1;rounded=0;entryX=0.5;entryY=0;entryDx=0;entryDy=0;exitX=0.5;exitY=1;exitDx=0;exitDy=0;" parent="1" target="O262PkwjfAipwRfIdHsJ-17" edge="1">
          <mxGeometry relative="1" as="geometry">
            <mxPoint x="180" y="220" as="sourcePoint" />
            <mxPoint x="190" y="270" as="targetPoint" />
          </mxGeometry>
        </mxCell>
        <mxCell id="O262PkwjfAipwRfIdHsJ-21" value="고객코드" style="ellipse;whiteSpace=wrap;html=1;align=center;fontStyle=4;rounded=0;" parent="1" vertex="1">
          <mxGeometry x="330.5" y="130" width="100" height="40" as="geometry" />
        </mxCell>
        <mxCell id="O262PkwjfAipwRfIdHsJ-22" value="" style="endArrow=none;html=1;rounded=0;entryX=0;entryY=0.5;entryDx=0;entryDy=0;exitX=1;exitY=0;exitDx=0;exitDy=0;" parent="1" source="O262PkwjfAipwRfIdHsJ-3" target="O262PkwjfAipwRfIdHsJ-21" edge="1">
          <mxGeometry relative="1" as="geometry">
            <mxPoint x="139.5" y="120" as="sourcePoint" />
            <mxPoint x="299.5" y="120" as="targetPoint" />
          </mxGeometry>
        </mxCell>
        <mxCell id="Zwfe3CJp1zHnG0EpspI3-5" value="지역" style="whiteSpace=wrap;html=1;align=center;rounded=0;" vertex="1" parent="1">
          <mxGeometry x="129.5" y="535" width="100" height="40" as="geometry" />
        </mxCell>
        <mxCell id="Zwfe3CJp1zHnG0EpspI3-6" value="지역명" style="ellipse;whiteSpace=wrap;html=1;align=center;rounded=0;" vertex="1" parent="1">
          <mxGeometry x="60" y="600" width="100" height="40" as="geometry" />
        </mxCell>
        <mxCell id="Zwfe3CJp1zHnG0EpspI3-11" value="" style="endArrow=none;html=1;rounded=0;entryX=0.5;entryY=0;entryDx=0;entryDy=0;exitX=0.5;exitY=1;exitDx=0;exitDy=0;" edge="1" parent="1" source="Zwfe3CJp1zHnG0EpspI3-12" target="Zwfe3CJp1zHnG0EpspI3-5">
          <mxGeometry relative="1" as="geometry">
            <mxPoint x="111" y="520" as="sourcePoint" />
            <mxPoint x="240" y="520" as="targetPoint" />
          </mxGeometry>
        </mxCell>
        <mxCell id="Zwfe3CJp1zHnG0EpspI3-12" value="&lt;font color=&quot;#ff0000&quot;&gt;지역 코드&lt;/font&gt;" style="ellipse;whiteSpace=wrap;html=1;align=center;fontStyle=4;" vertex="1" parent="1">
          <mxGeometry x="60" y="470" width="100" height="40" as="geometry" />
        </mxCell>
        <mxCell id="Zwfe3CJp1zHnG0EpspI3-13" value="" style="endArrow=none;html=1;rounded=0;entryX=0.5;entryY=1;entryDx=0;entryDy=0;exitX=0.5;exitY=0;exitDx=0;exitDy=0;" edge="1" parent="1" source="Zwfe3CJp1zHnG0EpspI3-6" target="Zwfe3CJp1zHnG0EpspI3-5">
          <mxGeometry relative="1" as="geometry">
            <mxPoint x="111" y="570" as="sourcePoint" />
            <mxPoint x="211" y="590" as="targetPoint" />
          </mxGeometry>
        </mxCell>
        <mxCell id="Zwfe3CJp1zHnG0EpspI3-15" value="제품" style="ellipse;whiteSpace=wrap;html=1;align=center;rounded=0;" vertex="1" parent="1">
          <mxGeometry x="350.5" y="205" width="100" height="40" as="geometry" />
        </mxCell>
        <mxCell id="Zwfe3CJp1zHnG0EpspI3-16" value="" style="endArrow=none;html=1;rounded=0;exitX=1;exitY=0.75;exitDx=0;exitDy=0;" edge="1" parent="1" source="O262PkwjfAipwRfIdHsJ-3">
          <mxGeometry relative="1" as="geometry">
            <mxPoint x="289.5" y="205" as="sourcePoint" />
            <mxPoint x="350.5" y="225" as="targetPoint" />
          </mxGeometry>
        </mxCell>
        <mxCell id="Zwfe3CJp1zHnG0EpspI3-17" value="제품" style="whiteSpace=wrap;html=1;align=center;rounded=0;" vertex="1" parent="1">
          <mxGeometry x="570" y="440" width="100" height="40" as="geometry" />
        </mxCell>
        <mxCell id="Zwfe3CJp1zHnG0EpspI3-18" value="제품코드" style="ellipse;whiteSpace=wrap;html=1;align=center;" vertex="1" parent="1">
          <mxGeometry x="460" y="380" width="100" height="40" as="geometry" />
        </mxCell>
        <mxCell id="Zwfe3CJp1zHnG0EpspI3-19" value="제품명" style="ellipse;whiteSpace=wrap;html=1;align=center;" vertex="1" parent="1">
          <mxGeometry x="720" y="440" width="100" height="40" as="geometry" />
        </mxCell>
        <mxCell id="Zwfe3CJp1zHnG0EpspI3-20" value="제품구분" style="ellipse;whiteSpace=wrap;html=1;align=center;" vertex="1" parent="1">
          <mxGeometry x="590" y="360" width="100" height="40" as="geometry" />
        </mxCell>
        <mxCell id="Zwfe3CJp1zHnG0EpspI3-22" value="제품 색상" style="ellipse;shape=doubleEllipse;margin=3;whiteSpace=wrap;html=1;align=center;" vertex="1" parent="1">
          <mxGeometry x="660" y="535" width="100" height="40" as="geometry" />
        </mxCell>
        <mxCell id="Zwfe3CJp1zHnG0EpspI3-23" value="가격" style="ellipse;whiteSpace=wrap;html=1;align=center;" vertex="1" parent="1">
          <mxGeometry x="520" y="535" width="100" height="40" as="geometry" />
        </mxCell>
        <mxCell id="Zwfe3CJp1zHnG0EpspI3-24" value="" style="endArrow=none;html=1;rounded=0;exitX=0.5;exitY=1;exitDx=0;exitDy=0;" edge="1" parent="1" source="Zwfe3CJp1zHnG0EpspI3-18" target="Zwfe3CJp1zHnG0EpspI3-17">
          <mxGeometry relative="1" as="geometry">
            <mxPoint x="270" y="290" as="sourcePoint" />
            <mxPoint x="430" y="290" as="targetPoint" />
          </mxGeometry>
        </mxCell>
        <mxCell id="Zwfe3CJp1zHnG0EpspI3-25" value="" style="endArrow=none;html=1;rounded=0;exitX=0;exitY=0.5;exitDx=0;exitDy=0;" edge="1" parent="1" source="Zwfe3CJp1zHnG0EpspI3-19" target="Zwfe3CJp1zHnG0EpspI3-17">
          <mxGeometry relative="1" as="geometry">
            <mxPoint x="820" y="460" as="sourcePoint" />
            <mxPoint x="680" y="460" as="targetPoint" />
          </mxGeometry>
        </mxCell>
        <mxCell id="Zwfe3CJp1zHnG0EpspI3-26" value="" style="endArrow=none;html=1;rounded=0;exitX=1;exitY=0.5;exitDx=0;exitDy=0;entryX=0.5;entryY=1;entryDx=0;entryDy=0;" edge="1" parent="1" source="Zwfe3CJp1zHnG0EpspI3-23" target="Zwfe3CJp1zHnG0EpspI3-17">
          <mxGeometry relative="1" as="geometry">
            <mxPoint x="590" y="450" as="sourcePoint" />
            <mxPoint x="630" y="490" as="targetPoint" />
          </mxGeometry>
        </mxCell>
        <mxCell id="Zwfe3CJp1zHnG0EpspI3-27" value="" style="endArrow=none;html=1;rounded=0;entryX=1;entryY=1;entryDx=0;entryDy=0;" edge="1" parent="1" source="Zwfe3CJp1zHnG0EpspI3-22" target="Zwfe3CJp1zHnG0EpspI3-17">
          <mxGeometry relative="1" as="geometry">
            <mxPoint x="600" y="460" as="sourcePoint" />
            <mxPoint x="680" y="490" as="targetPoint" />
          </mxGeometry>
        </mxCell>
        <mxCell id="Zwfe3CJp1zHnG0EpspI3-28" value="" style="endArrow=none;html=1;rounded=0;exitX=0.5;exitY=1;exitDx=0;exitDy=0;entryX=0.5;entryY=0;entryDx=0;entryDy=0;" edge="1" parent="1" source="Zwfe3CJp1zHnG0EpspI3-20" target="Zwfe3CJp1zHnG0EpspI3-17">
          <mxGeometry relative="1" as="geometry">
            <mxPoint x="550" y="460" as="sourcePoint" />
            <mxPoint x="610" y="482" as="targetPoint" />
          </mxGeometry>
        </mxCell>
        <mxCell id="Zwfe3CJp1zHnG0EpspI3-30" value="관리" style="shape=rhombus;perimeter=rhombusPerimeter;whiteSpace=wrap;html=1;align=center;" vertex="1" parent="1">
          <mxGeometry x="149.5" y="380" width="120" height="60" as="geometry" />
        </mxCell>
        <mxCell id="Zwfe3CJp1zHnG0EpspI3-31" value="" style="endArrow=none;html=1;rounded=0;entryX=0.5;entryY=1;entryDx=0;entryDy=0;" edge="1" parent="1" target="Zwfe3CJp1zHnG0EpspI3-30">
          <mxGeometry relative="1" as="geometry">
            <mxPoint x="189" y="535" as="sourcePoint" />
            <mxPoint x="409" y="545" as="targetPoint" />
          </mxGeometry>
        </mxCell>
        <mxCell id="Zwfe3CJp1zHnG0EpspI3-32" value="" style="endArrow=none;html=1;rounded=0;entryX=0.5;entryY=0;entryDx=0;entryDy=0;exitX=0.385;exitY=1.075;exitDx=0;exitDy=0;exitPerimeter=0;" edge="1" parent="1" source="O262PkwjfAipwRfIdHsJ-3" target="Zwfe3CJp1zHnG0EpspI3-30">
          <mxGeometry relative="1" as="geometry">
            <mxPoint x="311" y="300" as="sourcePoint" />
            <mxPoint x="471" y="300" as="targetPoint" />
          </mxGeometry>
        </mxCell>
        <mxCell id="Zwfe3CJp1zHnG0EpspI3-33" value="구매" style="shape=rhombus;perimeter=rhombusPerimeter;whiteSpace=wrap;html=1;align=center;" vertex="1" parent="1">
          <mxGeometry x="322.5" y="430" width="120" height="60" as="geometry" />
        </mxCell>
        <mxCell id="Zwfe3CJp1zHnG0EpspI3-34" value="" style="endArrow=none;html=1;rounded=0;entryX=0;entryY=0.5;entryDx=0;entryDy=0;exitX=0.5;exitY=1;exitDx=0;exitDy=0;" edge="1" parent="1" source="O262PkwjfAipwRfIdHsJ-3" target="Zwfe3CJp1zHnG0EpspI3-33">
          <mxGeometry relative="1" as="geometry">
            <mxPoint x="311" y="300" as="sourcePoint" />
            <mxPoint x="335" y="450" as="targetPoint" />
          </mxGeometry>
        </mxCell>
        <mxCell id="Zwfe3CJp1zHnG0EpspI3-35" value="" style="endArrow=none;html=1;rounded=0;entryX=0;entryY=0.5;entryDx=0;entryDy=0;exitX=1;exitY=0.5;exitDx=0;exitDy=0;" edge="1" parent="1" source="Zwfe3CJp1zHnG0EpspI3-33" target="Zwfe3CJp1zHnG0EpspI3-17">
          <mxGeometry relative="1" as="geometry">
            <mxPoint x="330" y="310" as="sourcePoint" />
            <mxPoint x="490" y="310" as="targetPoint" />
          </mxGeometry>
        </mxCell>
        <mxCell id="Zwfe3CJp1zHnG0EpspI3-36" value="구매수량" style="ellipse;whiteSpace=wrap;html=1;align=center;" vertex="1" parent="1">
          <mxGeometry x="278.5" y="520" width="100" height="40" as="geometry" />
        </mxCell>
        <mxCell id="Zwfe3CJp1zHnG0EpspI3-39" value="구매일자" style="ellipse;whiteSpace=wrap;html=1;align=center;" vertex="1" parent="1">
          <mxGeometry x="382.5" y="520" width="100" height="40" as="geometry" />
        </mxCell>
        <mxCell id="Zwfe3CJp1zHnG0EpspI3-40" value="" style="endArrow=none;html=1;rounded=0;entryX=0.5;entryY=1;entryDx=0;entryDy=0;exitX=0.5;exitY=0;exitDx=0;exitDy=0;" edge="1" parent="1" source="Zwfe3CJp1zHnG0EpspI3-36" target="Zwfe3CJp1zHnG0EpspI3-33">
          <mxGeometry relative="1" as="geometry">
            <mxPoint x="298.5" y="310" as="sourcePoint" />
            <mxPoint x="458.5" y="310" as="targetPoint" />
          </mxGeometry>
        </mxCell>
        <mxCell id="Zwfe3CJp1zHnG0EpspI3-41" value="" style="endArrow=none;html=1;rounded=0;entryX=0.5;entryY=0;entryDx=0;entryDy=0;exitX=0.5;exitY=1;exitDx=0;exitDy=0;" edge="1" parent="1" source="Zwfe3CJp1zHnG0EpspI3-33" target="Zwfe3CJp1zHnG0EpspI3-39">
          <mxGeometry relative="1" as="geometry">
            <mxPoint x="298.5" y="310" as="sourcePoint" />
            <mxPoint x="458.5" y="310" as="targetPoint" />
          </mxGeometry>
        </mxCell>
      </root>
    </mxGraphModel>
  </diagram>
</mxfile>
